<svg width="432" height="375" viewBox="0 0 432 375" fill="none" xmlns="http://www.w3.org/2000/svg">
<path d="M410.207 161.21C403.297 147.77 389.297 130.42 368.567 109.65C351.147 92.18 332.027 75.37 318.717 64.07C306.597 43.86 292.277 28.2 276.137 17.51C258.607 5.89 238.767 0 217.177 0C174.327 0 137.967 23.73 111.937 68.65C51.9772 119.72 29.8172 149.04 21.7972 164.65C-2.89283 212.71 -3.94283 263.57 5.52717 290.48C9.02717 300.42 13.8472 306.82 19.8572 309.5C21.9272 310.42 24.1372 310.89 26.4372 310.89C36.8672 310.89 47.7472 301.48 59.6872 282.12C65.8972 272.05 72.0372 259.84 77.8472 246.02C84.1772 276.55 98.4172 304.81 119.337 327.73C146.537 357.52 182.197 374.61 217.177 374.61C252.157 374.61 286.977 358.15 314.407 329.44C328.127 315.08 339.127 298.52 347.087 280.2C351.437 270.19 354.777 259.89 357.087 249.36C362.587 261.71 368.317 272.56 374.047 281.44C385.337 298.95 395.647 307.46 405.567 307.46C407.857 307.46 410.067 306.99 412.147 306.07C418.157 303.39 422.977 296.99 426.477 287.05C435.947 260.14 434.897 209.28 410.207 161.22V161.21Z" fill="#F2F2F7"/>
</svg>
