<svg width="417" height="360" viewBox="0 0 417 360" fill="none" xmlns="http://www.w3.org/2000/svg">
<path d="M416.553 237.5C416.513 235.87 416.443 234.21 416.353 232.53C416.213 230.01 416.023 227.44 415.763 224.83C415.503 222.22 415.183 219.56 414.793 216.87C414.403 214.18 413.953 211.45 413.433 208.69C412.033 201.33 410.143 193.75 407.683 186.06C404.613 176.46 400.653 166.7 395.683 157.02C394.753 155.21 393.703 153.35 392.533 151.45C392.243 150.97 391.943 150.49 391.633 150.01C391.223 149.37 390.803 148.72 390.363 148.07C389.823 147.25 389.263 146.43 388.693 145.6C388.343 145.1 387.993 144.6 387.633 144.1C386.913 143.1 386.173 142.08 385.403 141.06C383.103 138 380.593 134.86 377.923 131.68C376.583 130.09 375.213 128.49 373.793 126.88C373.323 126.34 372.843 125.81 372.363 125.27C371.403 124.19 370.433 123.11 369.443 122.03C368.453 120.95 367.453 119.86 366.443 118.78C364.413 116.61 362.343 114.43 360.233 112.26C359.173 111.17 358.113 110.09 357.043 109.01C354.903 106.84 352.733 104.69 350.543 102.54C349.453 101.47 348.353 100.4 347.253 99.34C344.503 96.68 341.733 94.06 338.963 91.48C337.863 90.45 336.753 89.42 335.653 88.41C333.453 86.38 331.263 84.38 329.093 82.42C328.293 81.7 327.503 80.99 326.713 80.28C325.893 79.54 325.073 78.81 324.263 78.09L322.673 76.68C321.093 75.28 319.533 73.91 318.003 72.57C313.403 68.55 309.043 64.8 305.063 61.43C302.213 56.6 299.223 52.02 296.103 47.7C292.193 42.3 288.073 37.31 283.733 32.75C282.863 31.84 281.983 30.94 281.103 30.07C277.563 26.56 273.873 23.34 270.043 20.41C268.133 18.94 266.183 17.55 264.193 16.24C261.213 14.27 258.153 12.46 255.013 10.83C252.923 9.74 250.783 8.74 248.623 7.81C244.283 5.95 239.803 4.42 235.173 3.21C232.853 2.61 230.503 2.09 228.113 1.65C224.523 1 220.853 0.54 217.103 0.27C214.603 0.09 212.063 0 209.483 0C200.203 0 191.353 1.2 182.933 3.5C179.323 4.49 175.803 5.68 172.363 7.06C170.063 7.98 167.813 8.99 165.583 10.09C154.473 15.56 144.283 23.14 135.043 32.54C133.193 34.42 131.383 36.38 129.613 38.4C122.533 46.5 116.063 55.73 110.233 65.95C102.233 72.75 92.8229 80.95 83.1029 89.86C81.4829 91.34 79.8529 92.85 78.2229 94.37C77.6829 94.88 77.1329 95.39 76.5929 95.9C74.4129 97.94 72.2329 100.01 70.0629 102.1C68.9729 103.14 67.8929 104.19 66.8129 105.25C65.7329 106.3 64.6529 107.36 63.5829 108.42C63.0429 108.95 62.5129 109.48 61.9829 110.01C60.9129 111.07 59.8629 112.14 58.8029 113.21C58.2729 113.74 57.7529 114.28 57.2329 114.81C56.1929 115.88 55.1529 116.95 54.1229 118.02C53.6129 118.56 53.1029 119.09 52.5929 119.63C51.5729 120.7 50.5729 121.77 49.5829 122.84C49.0829 123.37 48.5929 123.91 48.1029 124.44C46.1429 126.57 44.2329 128.7 42.3829 130.82C41.4629 131.88 40.5529 132.93 39.6629 133.98C38.3229 135.55 37.0329 137.11 35.7829 138.66C34.9429 139.69 34.1329 140.72 33.3329 141.74C32.5429 142.76 31.7629 143.77 31.0129 144.78C29.8829 146.29 28.8129 147.78 27.7929 149.25C25.7529 152.19 23.9429 155.04 22.3829 157.78C21.8629 158.69 21.3829 159.6 20.9229 160.49C-10.9171 222.46 -1.05711 287.53 15.2729 294.82C15.5229 294.93 15.7829 295.03 16.0429 295.12C16.1229 295.15 16.2129 295.17 16.2929 295.19C16.4729 295.24 16.6529 295.29 16.8429 295.34C16.9429 295.36 17.0429 295.38 17.1429 295.4C17.3129 295.43 17.4929 295.46 17.6629 295.48C17.7629 295.49 17.8729 295.5 17.9729 295.51C18.1529 295.53 18.3329 295.53 18.5229 295.54H18.8329C18.9329 295.54 19.0429 295.54 19.1529 295.53C19.2929 295.53 19.4329 295.52 19.5829 295.5C19.6929 295.5 19.8029 295.48 19.9129 295.46C20.0529 295.44 20.1929 295.42 20.3429 295.4C20.4529 295.38 20.5629 295.36 20.6829 295.34C20.8229 295.31 20.9729 295.28 21.1129 295.25C21.2229 295.22 21.3429 295.19 21.4529 295.16C21.6029 295.12 21.7429 295.08 21.8929 295.03C22.0029 294.99 22.1229 294.96 22.2329 294.92C22.3829 294.87 22.5329 294.81 22.6829 294.76C22.7929 294.72 22.9129 294.68 23.0229 294.63C23.1729 294.57 23.3329 294.5 23.4929 294.43C23.6029 294.38 23.7129 294.33 23.8329 294.28C23.9929 294.2 24.1629 294.12 24.3229 294.04C24.4329 293.99 24.5329 293.94 24.6429 293.88C24.8229 293.78 25.0129 293.68 25.1929 293.57C25.2829 293.52 25.3729 293.47 25.4629 293.42C25.7329 293.26 26.0029 293.09 26.2829 292.92H26.2929C26.5729 292.74 26.8529 292.55 27.1429 292.35C27.2229 292.29 27.3029 292.23 27.3829 292.17C27.5829 292.03 27.7829 291.88 27.9929 291.73C28.1029 291.65 28.2029 291.56 28.3129 291.48C28.4929 291.34 28.6729 291.2 28.8529 291.06C28.9729 290.97 29.0829 290.87 29.2029 290.77C29.3729 290.63 29.5429 290.48 29.7229 290.33C29.8429 290.23 29.9629 290.12 30.0929 290.01C30.2629 289.86 30.4329 289.71 30.6029 289.55C30.7229 289.44 30.8529 289.32 30.9729 289.2C31.1429 289.04 31.3129 288.88 31.4829 288.72C31.6129 288.6 31.7329 288.48 31.8629 288.35C32.0329 288.18 32.2029 288.01 32.3829 287.83C32.5129 287.7 32.6329 287.58 32.7629 287.45C32.9429 287.27 33.1129 287.08 33.2929 286.9C33.4129 286.77 33.5429 286.64 33.6629 286.5C33.8429 286.31 34.0229 286.11 34.2029 285.91C34.3229 285.78 34.4429 285.64 34.5629 285.51C34.7529 285.3 34.9429 285.08 35.1329 284.86C35.2429 284.73 35.3629 284.6 35.4729 284.46C35.6829 284.22 35.8829 283.97 36.0929 283.72C36.1929 283.6 36.2929 283.49 36.3929 283.36C36.6529 283.05 36.9129 282.72 37.1729 282.4C37.2229 282.34 37.2729 282.28 37.3129 282.22C37.6229 281.83 37.9429 281.42 38.2529 281.01C38.2929 280.96 38.3229 280.91 38.3629 280.87C38.6329 280.51 38.9129 280.15 39.1829 279.78C39.2729 279.65 39.3729 279.52 39.4629 279.4C39.6829 279.1 39.9029 278.8 40.1229 278.5C40.2329 278.34 40.3429 278.19 40.4629 278.03C40.6629 277.75 40.8629 277.46 41.0729 277.17C41.1929 277 41.3129 276.82 41.4329 276.64C41.6229 276.36 41.8229 276.08 42.0129 275.79C42.1329 275.61 42.2629 275.42 42.3929 275.23C42.5829 274.94 42.7729 274.66 42.9729 274.37C43.1029 274.18 43.2329 273.98 43.3529 273.79C43.5429 273.5 43.7329 273.21 43.9229 272.91C44.0529 272.71 44.1829 272.51 44.3129 272.3C44.5029 272 44.6929 271.7 44.8829 271.39C45.0129 271.18 45.1429 270.98 45.2729 270.77C45.4629 270.46 45.6629 270.14 45.8529 269.82C45.9829 269.61 46.1029 269.41 46.2329 269.2C46.4329 268.87 46.6329 268.54 46.8329 268.2C46.9529 268 47.0729 267.8 47.1929 267.59C47.4029 267.23 47.6129 266.87 47.8329 266.5C47.9429 266.32 48.0429 266.13 48.1529 265.95C48.3929 265.53 48.6429 265.1 48.8829 264.67C48.9629 264.53 49.0329 264.4 49.1129 264.26C49.7629 263.11 50.4029 261.94 51.0529 260.74C51.1229 260.6 51.2029 260.46 51.2729 260.32C51.5229 259.86 51.7629 259.4 52.0129 258.94C52.1229 258.73 52.2329 258.52 52.3429 258.31C52.5529 257.91 52.7629 257.51 52.9729 257.1C53.0929 256.86 53.2229 256.62 53.3429 256.38C53.5429 256 53.7329 255.61 53.9329 255.22C54.0629 254.97 54.1929 254.71 54.3229 254.45C54.5129 254.07 54.7029 253.68 54.9029 253.3C55.0329 253.03 55.1729 252.76 55.3029 252.49C55.4929 252.11 55.6829 251.73 55.8629 251.34C55.9929 251.06 56.1329 250.79 56.2629 250.51C56.4529 250.12 56.6329 249.73 56.8229 249.34C56.9529 249.06 57.0929 248.78 57.2229 248.5C57.4129 248.1 57.6029 247.7 57.7829 247.3C57.9129 247.02 58.0429 246.74 58.1829 246.45C58.3729 246.04 58.5629 245.63 58.7529 245.22C58.8829 244.94 59.0129 244.66 59.1429 244.38C59.3429 243.95 59.5329 243.52 59.7229 243.09C59.8429 242.82 59.9729 242.55 60.0929 242.27C60.3029 241.8 60.5129 241.32 60.7229 240.85C60.8229 240.61 60.9329 240.38 61.0329 240.14C61.2929 239.56 61.5429 238.97 61.7929 238.38C61.8529 238.24 61.9129 238.1 61.9729 237.96C62.2929 237.23 62.6029 236.49 62.9229 235.74C62.9829 235.6 63.0429 235.46 63.1029 235.31C63.3529 234.71 63.6129 234.11 63.8629 233.5C63.9729 233.24 64.0729 232.98 64.1829 232.73C64.3829 232.24 64.5929 231.74 64.7929 231.24C64.9129 230.94 65.0429 230.63 65.1629 230.32C65.3429 229.86 65.5329 229.41 65.7129 228.95C65.8429 228.63 65.9729 228.3 66.1029 227.97C66.2829 227.52 66.4629 227.07 66.6429 226.61C66.7729 226.27 66.9029 225.93 67.0429 225.59C67.2129 225.15 67.3929 224.7 67.5629 224.25C67.6929 223.9 67.8329 223.55 67.9629 223.2C68.1329 222.75 68.3029 222.31 68.4729 221.86C68.6029 221.5 68.7429 221.15 68.8729 220.79C69.0429 220.34 69.2129 219.89 69.3729 219.44C69.5029 219.08 69.6429 218.72 69.7729 218.36C69.9429 217.9 70.1129 217.44 70.2829 216.98C70.4129 216.62 70.5429 216.26 70.6729 215.9C70.8429 215.43 71.0129 214.95 71.1829 214.47C71.3129 214.12 71.4329 213.77 71.5629 213.42C71.7429 212.93 71.9129 212.43 72.0829 211.93C72.2029 211.59 72.3229 211.25 72.4429 210.9C72.6329 210.34 72.8329 209.78 73.0229 209.22C73.1229 208.94 73.2129 208.66 73.3129 208.38C73.5929 207.55 73.8829 206.72 74.1629 205.88C74.1629 205.86 74.1729 205.84 74.1829 205.82C74.2129 207.17 74.2629 208.51 74.3229 209.85C74.3829 211.19 74.4629 212.52 74.5529 213.85C74.9229 219.16 75.5329 224.39 76.3729 229.53C76.7929 232.1 77.2729 234.65 77.8029 237.17C80.4629 249.78 84.4929 261.78 89.6529 272.98C90.6829 275.22 91.7629 277.43 92.8829 279.61C94.0029 281.79 95.1729 283.93 96.3729 286.04C98.1829 289.2 100.083 292.28 102.073 295.28C103.403 297.28 104.763 299.24 106.163 301.17C107.563 303.09 109.003 304.98 110.473 306.83C114.893 312.37 119.623 317.55 124.623 322.33C148.763 345.44 179.003 359.24 209.493 359.24C239.983 359.24 273.663 344.04 298.763 318.91C299.623 318.05 300.473 317.17 301.323 316.28C303.543 313.96 305.693 311.55 307.783 309.07C308.803 307.86 309.803 306.63 310.793 305.39C311.673 304.28 312.533 303.16 313.383 302.03C314.193 300.95 314.993 299.85 315.783 298.75C316.533 297.7 317.273 296.63 318.003 295.56C319.533 293.3 321.023 290.99 322.453 288.63C323.073 287.61 323.673 286.59 324.263 285.55C325.243 283.84 326.193 282.1 327.113 280.35C327.593 279.45 328.053 278.54 328.513 277.63C329.323 276.02 330.113 274.4 330.873 272.76C331.533 271.34 332.163 269.9 332.773 268.45C334.063 265.43 335.273 262.37 336.383 259.25C336.793 258.1 337.193 256.93 337.573 255.77C338.043 254.34 338.493 252.89 338.923 251.44C340.253 246.97 341.413 242.42 342.363 237.78C342.653 236.34 342.923 234.9 343.183 233.45C343.553 231.35 343.883 229.24 344.163 227.1C344.353 225.66 344.533 224.21 344.693 222.76C345.103 218.94 345.373 215.08 345.503 211.17C345.783 211.95 346.063 212.73 346.343 213.5C346.443 213.77 346.533 214.03 346.633 214.29C346.823 214.8 347.003 215.3 347.193 215.81C347.303 216.12 347.423 216.42 347.533 216.73C347.703 217.19 347.873 217.65 348.043 218.1C348.163 218.42 348.283 218.74 348.403 219.06C348.563 219.49 348.733 219.93 348.903 220.36C349.033 220.69 349.153 221.01 349.283 221.34C349.443 221.76 349.613 222.18 349.773 222.6C349.903 222.93 350.033 223.26 350.163 223.58C350.323 223.99 350.483 224.4 350.653 224.81C350.783 225.14 350.913 225.46 351.043 225.78C351.203 226.19 351.373 226.6 351.533 227C351.663 227.32 351.793 227.64 351.923 227.95C352.093 228.36 352.253 228.76 352.423 229.17C352.553 229.48 352.683 229.79 352.803 230.1C352.973 230.51 353.143 230.92 353.313 231.33C353.433 231.63 353.563 231.92 353.683 232.22C353.863 232.64 354.043 233.06 354.223 233.48C354.343 233.75 354.453 234.03 354.573 234.3C354.783 234.78 354.993 235.26 355.193 235.74C355.283 235.94 355.373 236.15 355.453 236.35C355.753 237.03 356.053 237.71 356.353 238.38C356.403 238.49 356.453 238.61 356.503 238.72C356.753 239.27 356.993 239.82 357.243 240.37C357.353 240.61 357.463 240.85 357.573 241.1C357.763 241.52 357.953 241.94 358.143 242.35C358.263 242.61 358.383 242.87 358.503 243.13C358.683 243.52 358.863 243.9 359.043 244.29C359.173 244.56 359.293 244.83 359.423 245.09C359.603 245.46 359.773 245.83 359.953 246.2C360.083 246.47 360.213 246.74 360.343 247.01C360.513 247.36 360.683 247.72 360.853 248.07C360.983 248.35 361.123 248.62 361.253 248.89C361.423 249.23 361.593 249.57 361.763 249.91C361.903 250.18 362.033 250.45 362.173 250.72C362.343 251.05 362.513 251.39 362.673 251.72C362.813 251.99 362.943 252.26 363.083 252.52C363.253 252.85 363.423 253.19 363.593 253.52C363.723 253.77 363.853 254.03 363.993 254.28C364.173 254.62 364.353 254.96 364.523 255.29C364.653 255.53 364.773 255.77 364.903 256C365.093 256.36 365.283 256.71 365.473 257.06C365.583 257.27 365.703 257.48 365.813 257.69C366.033 258.1 366.253 258.5 366.473 258.9C366.553 259.05 366.643 259.2 366.723 259.35C367.023 259.89 367.323 260.43 367.623 260.97C367.703 261.12 367.793 261.26 367.873 261.41C368.093 261.79 368.313 262.18 368.533 262.56C368.653 262.76 368.773 262.97 368.883 263.17C369.063 263.49 369.253 263.8 369.433 264.12C369.563 264.33 369.683 264.54 369.813 264.76C369.993 265.05 370.163 265.35 370.343 265.64C370.473 265.86 370.603 266.07 370.733 266.29C370.903 266.57 371.073 266.85 371.243 267.12C371.373 267.34 371.513 267.55 371.643 267.76C371.813 268.03 371.983 268.3 372.153 268.56C372.283 268.77 372.423 268.98 372.553 269.19C372.723 269.45 372.883 269.71 373.053 269.97C373.183 270.18 373.323 270.38 373.453 270.59C373.623 270.84 373.783 271.09 373.953 271.34C374.083 271.54 374.223 271.74 374.353 271.94C374.523 272.19 374.693 272.44 374.863 272.68L375.253 273.25C375.423 273.5 375.603 273.75 375.773 274C375.893 274.17 376.023 274.35 376.143 274.52C376.333 274.78 376.513 275.04 376.703 275.29C376.813 275.44 376.923 275.6 377.033 275.75C377.263 276.06 377.493 276.37 377.723 276.68C377.783 276.77 377.853 276.85 377.913 276.94C378.203 277.33 378.493 277.71 378.783 278.08C378.873 278.2 378.963 278.31 379.053 278.43C379.253 278.68 379.453 278.94 379.653 279.19C379.763 279.33 379.883 279.47 379.993 279.61C380.173 279.83 380.343 280.04 380.523 280.25C380.643 280.4 380.773 280.54 380.893 280.69C381.063 280.89 381.223 281.08 381.393 281.28C381.523 281.42 381.643 281.57 381.763 281.71C381.923 281.9 382.093 282.08 382.253 282.26C382.383 282.4 382.503 282.54 382.633 282.68C382.793 282.85 382.953 283.03 383.113 283.2C383.243 283.34 383.363 283.47 383.493 283.6C383.653 283.76 383.803 283.93 383.963 284.09C384.093 284.22 384.213 284.35 384.343 284.48L384.813 284.95C384.933 285.07 385.063 285.19 385.183 285.31C385.343 285.46 385.503 285.61 385.663 285.76C385.783 285.87 385.903 285.99 386.023 286.09C386.183 286.24 386.353 286.38 386.513 286.53C386.623 286.63 386.733 286.73 386.843 286.83C387.023 286.98 387.193 287.13 387.373 287.28C387.473 287.36 387.563 287.45 387.663 287.52C387.913 287.73 388.163 287.92 388.413 288.11C388.433 288.13 388.453 288.14 388.473 288.16C388.743 288.37 389.013 288.56 389.273 288.75C389.363 288.81 389.453 288.87 389.543 288.94C389.723 289.06 389.893 289.19 390.073 289.3C390.183 289.37 390.283 289.44 390.393 289.5C390.553 289.6 390.713 289.7 390.863 289.8C390.973 289.87 391.083 289.93 391.193 290C391.343 290.09 391.493 290.17 391.643 290.26C391.753 290.32 391.873 290.38 391.983 290.44C392.133 290.52 392.273 290.59 392.413 290.66C392.523 290.72 392.643 290.77 392.753 290.82C392.893 290.89 393.043 290.95 393.183 291.01C393.293 291.06 393.403 291.11 393.513 291.15C393.653 291.21 393.793 291.26 393.933 291.31C394.043 291.35 394.153 291.39 394.263 291.43C394.403 291.48 394.543 291.52 394.683 291.57C394.793 291.6 394.903 291.64 395.003 291.67C395.143 291.71 395.283 291.74 395.423 291.78C395.523 291.8 395.633 291.83 395.733 291.85C395.883 291.88 396.023 291.91 396.173 291.93C396.263 291.95 396.363 291.97 396.453 291.98C396.613 292 396.773 292.02 396.943 292.04C397.013 292.04 397.093 292.06 397.163 292.06C397.393 292.08 397.633 292.09 397.863 292.09C398.133 292.09 398.413 292.07 398.673 292.05C398.753 292.05 398.833 292.03 398.923 292.02C399.113 292 399.303 291.97 399.483 291.93C399.573 291.91 399.663 291.89 399.753 291.87C399.933 291.83 400.123 291.78 400.303 291.72C400.383 291.7 400.463 291.67 400.543 291.65C400.803 291.56 401.053 291.47 401.303 291.36C404.623 289.88 407.673 286.02 410.163 280.28C410.733 278.96 411.283 277.53 411.793 276.01C413.833 269.94 415.343 262.37 416.073 253.71C416.383 250.1 416.553 246.3 416.573 242.34V239.94C416.573 239.14 416.553 238.32 416.533 237.51H416.553V237.5ZM337.613 215.59C337.523 217 337.413 218.42 337.283 219.83C337.023 222.65 336.683 225.46 336.263 228.26C336.053 229.66 335.823 231.06 335.573 232.45C335.073 235.24 334.493 238.02 333.833 240.79C333.173 243.56 332.433 246.32 331.623 249.06C330.493 252.85 329.213 256.61 327.783 260.31C326.833 262.78 325.813 265.23 324.723 267.65C323.643 270.07 322.493 272.47 321.283 274.84C318.873 279.57 316.213 284.19 313.323 288.65C309.713 294.23 305.753 299.56 301.473 304.59C300.703 305.49 299.933 306.38 299.143 307.26C298.353 308.14 297.563 309.01 296.753 309.87C294.333 312.45 291.833 314.94 289.263 317.33C285.833 320.51 282.273 323.51 278.603 326.31C275.853 328.41 273.043 330.39 270.183 332.26C268.273 333.5 266.343 334.69 264.403 335.82C262.453 336.95 260.493 338.03 258.513 339.04C255.523 340.57 252.503 341.97 249.453 343.22C246.403 344.48 243.333 345.6 240.253 346.57C238.193 347.22 236.133 347.81 234.073 348.34C225.823 350.44 217.553 351.52 209.483 351.52C201.413 351.52 193.663 350.52 185.823 348.59C183.863 348.11 181.913 347.56 179.963 346.96C178.013 346.36 176.073 345.7 174.153 344.99C172.223 344.28 170.303 343.51 168.393 342.68C166.483 341.85 164.593 340.97 162.703 340.04C159.883 338.64 157.083 337.11 154.333 335.47C152.493 334.37 150.673 333.22 148.873 332.02C146.173 330.22 143.513 328.3 140.903 326.27C138.293 324.24 135.733 322.09 133.223 319.83C131.553 318.33 129.903 316.77 128.283 315.17C126.663 313.57 125.073 311.92 123.503 310.22C122.723 309.37 121.943 308.51 121.183 307.64C116.483 302.3 112.173 296.66 108.273 290.77C105.153 286.06 102.303 281.19 99.7129 276.18C99.0629 274.93 98.4329 273.67 97.8229 272.4C95.9829 268.59 94.3029 264.71 92.7629 260.77C91.7429 258.14 90.7929 255.48 89.9129 252.8C89.0329 250.12 88.2229 247.41 87.4829 244.67C86.8129 242.19 86.2029 239.69 85.6529 237.18C85.2929 235.54 84.9429 233.89 84.6329 232.23C84.1029 229.44 83.6529 226.62 83.2729 223.79C82.8929 220.96 82.5829 218.12 82.3529 215.26C82.1229 212.4 81.9629 209.53 81.8729 206.66C81.7829 203.79 81.7729 200.89 81.8429 198C81.9729 192.21 82.4029 186.39 83.1429 180.57C83.3929 178.6 83.6629 176.64 83.9329 174.69C84.2129 172.74 84.5029 170.81 84.8029 168.88C85.5729 163.93 86.4229 159.06 87.3529 154.28C88.2829 149.5 89.2829 144.81 90.3629 140.21C91.3329 136.1 92.3629 132.07 93.4529 128.11C94.1929 125.43 94.9429 122.77 95.7329 120.16C96.3829 118 97.0529 115.87 97.7429 113.77C98.3729 111.84 99.0329 109.94 99.6929 108.05C100.083 106.95 100.473 105.85 100.863 104.76C102.583 100.05 104.403 95.48 106.313 91.06C112.043 77.8 118.613 65.86 125.973 55.45C127.603 53.15 129.263 50.94 130.963 48.79C132.173 47.26 133.393 45.78 134.633 44.33C140.843 37.11 147.473 30.9 154.483 25.77C155.883 24.74 157.303 23.76 158.733 22.82C160.163 21.88 161.613 20.98 163.073 20.13C163.963 19.61 164.853 19.11 165.743 18.63C167.533 17.66 169.353 16.75 171.193 15.91C173.033 15.07 174.893 14.29 176.763 13.57C178.633 12.85 180.543 12.21 182.463 11.62C191.103 8.98 200.133 7.66 209.483 7.66C212.603 7.66 215.683 7.8 218.713 8.09C221.743 8.38 224.733 8.8 227.673 9.37C228.653 9.56 229.623 9.76 230.593 9.99C232.533 10.43 234.443 10.94 236.333 11.5C237.283 11.78 238.223 12.08 239.153 12.4C242.893 13.66 246.533 15.16 250.083 16.92C251.853 17.8 253.603 18.74 255.323 19.74C265.423 25.61 274.823 33.7 283.403 43.88C284.783 45.51 286.133 47.2 287.473 48.94C288.803 50.68 290.123 52.47 291.403 54.32C292.533 55.93 293.633 57.58 294.733 59.27C296.913 62.65 299.033 66.18 301.083 69.86C304.153 75.39 307.073 81.26 309.833 87.47C310.753 89.54 311.653 91.65 312.543 93.79C313.433 95.94 314.293 98.12 315.143 100.34C315.853 102.19 316.553 104.07 317.233 105.98C317.923 107.89 318.593 109.82 319.253 111.77C321.393 118.11 323.413 124.73 325.303 131.61C326.433 135.74 327.523 139.96 328.563 144.28C329.603 148.6 330.593 153.01 331.533 157.52C332.163 160.53 332.773 163.57 333.353 166.66C334.233 171.29 335.063 176.02 335.853 180.84C335.853 180.87 335.853 180.89 335.863 180.92C335.883 181.07 335.903 181.22 335.933 181.37C336.623 185.68 337.123 189.98 337.453 194.27C337.783 198.56 337.933 202.84 337.893 207.1C337.873 209.94 337.773 212.78 337.593 215.61L337.613 215.59ZM171.953 155.72C171.953 176.36 164.743 193.1 155.863 193.1C146.983 193.1 139.773 176.37 139.773 155.72C139.773 135.07 146.983 118.34 155.863 118.34C164.743 118.34 171.953 135.07 171.953 155.72ZM289.953 271.83C274.463 285.6 253.633 299.94 202.343 299.94C196.443 299.94 190.143 299.75 183.403 299.35C181.283 299.22 179.673 297.4 179.793 295.29C179.923 293.17 181.753 291.55 183.853 291.68C251.513 295.71 272.373 277.17 284.843 266.09C286.433 264.68 288.853 264.82 290.263 266.41C291.673 268 291.533 270.42 289.943 271.83H289.953ZM276.103 182.97L236.143 161.17L276.103 139.31C277.963 138.29 280.303 138.97 281.313 140.84C282.333 142.7 281.643 145.04 279.783 146.05L252.163 161.16L279.773 176.22C281.633 177.24 282.323 179.57 281.303 181.43C280.603 182.71 279.283 183.43 277.923 183.43C277.303 183.43 276.673 183.28 276.083 182.96H276.103V182.97ZM183.013 233.48C179.263 229.73 178.513 224.12 180.753 219.62C181.723 217.67 183.763 216.49 185.943 216.49H233.763C235.933 216.49 237.973 217.67 238.953 219.62C241.193 224.12 240.443 229.73 236.693 233.48L222.483 247.69C215.503 254.67 204.193 254.67 197.213 247.69L183.003 233.48H183.013ZM256.093 44.78C256.093 51.67 250.513 57.25 243.623 57.25C236.733 57.25 231.153 51.67 231.153 44.78C231.153 37.89 236.733 32.31 243.623 32.31C250.513 32.31 256.093 37.89 256.093 44.78ZM294.123 124.77C287.233 124.77 281.653 119.19 281.653 112.3C281.653 105.41 287.233 99.83 294.123 99.83C301.013 99.83 306.593 105.41 306.593 112.3C306.593 119.19 301.013 124.77 294.123 124.77ZM168.323 57.26C168.323 64.15 162.743 69.73 155.853 69.73C148.963 69.73 143.383 64.15 143.383 57.26C143.383 50.37 148.963 44.79 155.853 44.79C162.743 44.79 168.323 50.37 168.323 57.26ZM132.223 253.81C132.223 260.7 126.643 266.28 119.753 266.28C112.863 266.28 107.283 260.7 107.283 253.81C107.283 246.92 112.863 241.34 119.753 241.34C126.643 241.34 132.223 246.92 132.223 253.81ZM323.673 210.98C323.673 217.87 318.093 223.45 311.203 223.45C304.313 223.45 298.733 217.87 298.733 210.98C298.733 204.09 304.313 198.51 311.203 198.51C318.093 198.51 323.673 204.09 323.673 210.98ZM247.983 328.96C247.983 335.85 242.403 341.43 235.513 341.43C228.623 341.43 223.043 335.85 223.043 328.96C223.043 322.07 228.623 316.49 235.513 316.49C242.403 316.49 247.983 322.07 247.983 328.96Z" fill="#1D1D1F"/>
</svg>
